<?xml version="1.0" encoding="UTF-8"?>
<svg id="Layer_1" data-name="Layer 1" xmlns="http://www.w3.org/2000/svg" xmlns:xlink="http://www.w3.org/1999/xlink" viewBox="0 0 300 300">
  <defs>
    <style>
      .cls-1 {
        fill: url(#linear-gradient);
        stroke-width: 0px;
      }
    </style>
    <linearGradient id="linear-gradient" x1="87.36" y1="191.39" x2="177.81" y2="110.25" gradientUnits="userSpaceOnUse">
      <stop offset=".09" stop-color="#d1366d"/>
      <stop offset=".4" stop-color="#f074ac"/>
      <stop offset=".68" stop-color="#d1366d"/>
      <stop offset="1" stop-color="#d1366d"/>
    </linearGradient>
  </defs>
  <path class="cls-1" d="m181.59,114.52c-3.9-18.83-20.46-32.59-40.87-32.59h-15.61c-3.15,0-5.71,2.57-5.71,5.74v28.28c0,3.17,2.55,5.74,5.71,5.74h34.27c4.17,0,8.07.46,11.68,1.33,0,.03,0,.06,0,.09v28.1c0,17.08-9.07,26.48-25.54,26.48h-20.4c-3.15,0-5.71,2.57-5.71,5.74s2.55,5.74,5.71,5.74h20.4c22.79,0,36.95-14.55,36.95-37.96v-23.43c10.69,6.77,16.79,18.89,16.79,34.82,0,11.78-5.42,22.67-15.26,30.66-9.28,7.53-21.56,11.86-33.67,11.86h-49.75v-116.75c0-3.17-2.55-5.74-5.71-5.74s-5.71,2.57-5.71,5.74v122.49c0,3.17,2.55,5.74,5.71,5.74h55.46c14.68,0,29.56-5.25,40.84-14.4,12.58-10.21,19.51-24.27,19.51-39.59,0-22.96-11.08-40.39-29.08-48.07Zm-22.22-4.31h-28.56v-16.8h9.9c12.53,0,23.05,7.08,27.73,17.46-2.91-.43-5.94-.66-9.07-.66Z"/>
</svg>